<?xml version="1.0" encoding="utf-8"?>
<!-- Generator: Adobe Illustrator 24.0.1, SVG Export Plug-In . SVG Version: 6.00 Build 0)  -->
<svg version="1.1" id="Layer_1" xmlns="http://www.w3.org/2000/svg" xmlns:xlink="http://www.w3.org/1999/xlink" x="0px" y="0px"
	 viewBox="0 0 792 612" style="enable-background:new 0 0 792 612;" xml:space="preserve">
<style type="text/css">
	.st0{display:none;}
	.st1{display:inline;fill:url(#SVGID_1_);}
	.st2{display:inline;}
	.st3{display:inline;fill:url(#SVGID_2_);}
	.st4{display:inline;fill:url(#SVGID_3_);}
	.st5{display:inline;fill:url(#SVGID_4_);}
	.st6{display:none;fill:url(#SVGID_5_);stroke:#000000;stroke-width:5;stroke-miterlimit:10;}
	.st7{fill:url(#SVGID_6_);stroke:#000000;stroke-miterlimit:10;}
	.st8{fill:url(#SVGID_7_);stroke:#000000;stroke-width:4;stroke-miterlimit:10;}
	.st9{fill:url(#SVGID_8_);stroke:#000000;stroke-width:4;stroke-miterlimit:10;}
</style>
<g class="st0">
	<linearGradient id="SVGID_1_" gradientUnits="userSpaceOnUse" x1="-121.96" y1="363.32" x2="-121.96" y2="363.32">
		<stop  offset="0" style="stop-color:#FF7300"/>
		<stop  offset="0.1771" style="stop-color:#F97C01"/>
		<stop  offset="0.4705" style="stop-color:#EA9602"/>
		<stop  offset="0.5521" style="stop-color:#E59E03"/>
		<stop  offset="0.7032" style="stop-color:#E5C500"/>
		<stop  offset="1" style="stop-color:#BF6F00"/>
	</linearGradient>
	<path class="st1" d="M-121.96,363.32"/>
	<g class="st2">
		<path d="M-121.96,364.82c1.93,0,1.93-3,0-3C-123.89,361.82-123.89,364.82-121.96,364.82L-121.96,364.82z"/>
	</g>
</g>
<g class="st0">
	<linearGradient id="SVGID_2_" gradientUnits="userSpaceOnUse" x1="-79.6" y1="354.56" x2="-79.6" y2="354.56">
		<stop  offset="0" style="stop-color:#FF7300"/>
		<stop  offset="0.1771" style="stop-color:#F97C01"/>
		<stop  offset="0.4705" style="stop-color:#EA9602"/>
		<stop  offset="0.5521" style="stop-color:#E59E03"/>
		<stop  offset="0.7032" style="stop-color:#E5C500"/>
		<stop  offset="1" style="stop-color:#BF6F00"/>
	</linearGradient>
	<path class="st3" d="M-79.6,354.56"/>
	<g class="st2">
		<path d="M-79.6,356.06c1.93,0,1.93-3,0-3C-81.53,353.06-81.53,356.06-79.6,356.06L-79.6,356.06z"/>
	</g>
</g>
<g class="st0">
	<linearGradient id="SVGID_3_" gradientUnits="userSpaceOnUse" x1="-122.2" y1="363.08" x2="-122.2" y2="363.08">
		<stop  offset="0" style="stop-color:#FF7300"/>
		<stop  offset="0.1771" style="stop-color:#F97C01"/>
		<stop  offset="0.4705" style="stop-color:#EA9602"/>
		<stop  offset="0.5521" style="stop-color:#E59E03"/>
		<stop  offset="0.7032" style="stop-color:#E5C500"/>
		<stop  offset="1" style="stop-color:#BF6F00"/>
	</linearGradient>
	<path class="st4" d="M-122.2,363.08"/>
	<g class="st2">
		<path d="M-122.2,364.58c1.93,0,1.93-3,0-3C-124.13,361.58-124.13,364.58-122.2,364.58L-122.2,364.58z"/>
	</g>
</g>
<g class="st0">
	<linearGradient id="SVGID_4_" gradientUnits="userSpaceOnUse" x1="-121.72" y1="363.68" x2="-121.72" y2="363.68">
		<stop  offset="0" style="stop-color:#FF7300"/>
		<stop  offset="0.1771" style="stop-color:#F97C01"/>
		<stop  offset="0.4705" style="stop-color:#EA9602"/>
		<stop  offset="0.5521" style="stop-color:#E59E03"/>
		<stop  offset="0.7032" style="stop-color:#E5C500"/>
		<stop  offset="1" style="stop-color:#BF6F00"/>
	</linearGradient>
	<path class="st5" d="M-121.72,363.68"/>
	<g class="st2">
		<path d="M-121.72,365.18c1.93,0,1.93-3,0-3C-123.65,362.18-123.65,365.18-121.72,365.18L-121.72,365.18z"/>
	</g>
</g>
<linearGradient id="SVGID_5_" gradientUnits="userSpaceOnUse" x1="-122.32" y1="371.72" x2="-122.32" y2="371.72">
	<stop  offset="0" style="stop-color:#FF7300"/>
	<stop  offset="0.1771" style="stop-color:#F97C01"/>
	<stop  offset="0.4705" style="stop-color:#EA9602"/>
	<stop  offset="0.5521" style="stop-color:#E59E03"/>
	<stop  offset="0.7032" style="stop-color:#E5C500"/>
	<stop  offset="1" style="stop-color:#BF6F00"/>
</linearGradient>
<path class="st6" d="M-122.32,371.72"/>
<g>
	<linearGradient id="SVGID_6_" gradientUnits="userSpaceOnUse" x1="505.2493" y1="181.9769" x2="505.2493" y2="181.9769">
		<stop  offset="0" style="stop-color:#FF7300"/>
		<stop  offset="0.1771" style="stop-color:#F97C01"/>
		<stop  offset="0.4705" style="stop-color:#EA9602"/>
		<stop  offset="0.5521" style="stop-color:#E59E03"/>
		<stop  offset="0.7032" style="stop-color:#E5C500"/>
		<stop  offset="1" style="stop-color:#BF6F00"/>
	</linearGradient>
	<path class="st7" d="M505.25,181.98"/>
	<g>
		<linearGradient id="SVGID_7_" gradientUnits="userSpaceOnUse" x1="482.2249" y1="220.92" x2="286.7507" y2="220.92">
			<stop  offset="0" style="stop-color:#FF7300"/>
			<stop  offset="0.1205" style="stop-color:#FF7B09"/>
			<stop  offset="0.3207" style="stop-color:#FF9123"/>
			<stop  offset="0.5521" style="stop-color:#FFB148"/>
			<stop  offset="0.7032" style="stop-color:#E5C500"/>
			<stop  offset="1" style="stop-color:#BF6F00"/>
		</linearGradient>
		<path class="st8" d="M385.75,319.92c0.92-1.96-7.72-0.22-11.49-0.66c-49.27-5.69-87.51-47.55-87.51-98.34
			c0-28.96,12.44-55.02,32.26-73.12c17.6-16.07,41.03-25.88,66.74-25.88c31.99,0,65.96,22.35,84.05,45.9
			c4.36,10.73,0.26,10.95-8.29,5.64l-23.39-16.18c-66.31-42.97-154.83,28.89-125.28,99c21.73,33.6,57.91,37.79,82.44,36
			c66.31-4.83,83.2-56.24,20.16-58.32c-2.63-0.09-24.31-1.99-33.48-3.6s0.36-7.56,2.88-9.44c7.62-5.67,52.13-3.16,80.16-0.08
			c10.79,1.18,18.5,10.98,17.03,21.73c-4.42,32.35-24.65,56.79-53.13,68.9"/>
	</g>
	<g>
		
			<linearGradient id="SVGID_8_" gradientUnits="userSpaceOnUse" x1="-603.291" y1="96.3689" x2="-788.1066" y2="96.3689" gradientTransform="matrix(-1 0 0 -1 -302.5372 487.4489)">
			<stop  offset="0" style="stop-color:#FF7300"/>
			<stop  offset="0.1205" style="stop-color:#FF7B09"/>
			<stop  offset="0.3207" style="stop-color:#FF9123"/>
			<stop  offset="0.5521" style="stop-color:#FFB148"/>
			<stop  offset="0.7032" style="stop-color:#E5C500"/>
			<stop  offset="1" style="stop-color:#BF6F00"/>
		</linearGradient>
		<path class="st9" d="M386.57,292.08c-2.09,1.91,10.65,0.04,11.49,0.66c49.27,5.67,87.51,47.55,87.51,98.34
			c0,28.96-12.44,55.02-32.26,73.12c-17.6,16.07-41.03,25.88-66.74,25.88c-31.99,0-65.96-22.35-84.05-45.9
			c-4.36-10.73-0.26-10.95,8.29-5.64l23.39,16.18c66.31,42.97,154.83-28.89,125.28-99c-21.73-33.6-81.77-36.54-81.77-36.54"/>
	</g>
</g>
</svg>
